<svg id="Capa_1" data-name="Capa 1" xmlns="http://www.w3.org/2000/svg" viewBox="0 0 279.5 47"><defs><style>.cls-1,.cls-2{stroke:#fff;stroke-miterlimit:10;}.cls-2{fill:#fff;}</style></defs><title>logogrande</title><path class="cls-1" d="M265.15,26.6a13.24,13.24,0,0,0,2.4-3.79,13.85,13.85,0,0,0,1-5.37A13,13,0,0,0,263.7,6.92c-2.71-2.11-6.37-3.18-10.89-3.18H239.29V11l-3-7.28H218a7.69,7.69,0,0,0-4.69,1.58,7.6,7.6,0,0,0-2.7,3.9l-.47,1.52-.69-2-.08-.2a8,8,0,0,0-2.25-3.06,7.66,7.66,0,0,0-4.88-1.75h-.5a7.73,7.73,0,0,0-7.27,5.1l-.65,1.9-.46-1.5a7.64,7.64,0,0,0-7.38-5.5H139.86L130,27.81a12.2,12.2,0,0,0-1.29-4.86,12.53,12.53,0,0,0-2.62-3.43,7.72,7.72,0,0,0,2-2.44l2.81-5.38-3.63-3.63a15.55,15.55,0,0,0-5.23-3.48,16.52,16.52,0,0,0-6.16-1.13,15.45,15.45,0,0,0-5.74,1c-.41.16-.8.34-1.18.53V3.74h-8.26A8.2,8.2,0,0,0,98,4.2a7.53,7.53,0,0,0-3.92,3.22L94,7.53l-4.55,8.05L84.7,7.42a7.55,7.55,0,0,0-3.79-3.17,8.11,8.11,0,0,0-2.86-.5H69.78V11l-3-7.28H55.58L54.51,6.35V3.74H1.1V19.31h9V43.26H54.35l0-.69a7.44,7.44,0,0,0,1.67-1,7.78,7.78,0,0,0,2.4-3.25l1.2-3h3.09L64,38.46a8,8,0,0,0,2.25,3.06,7.62,7.62,0,0,0,3.54,1.63v.12H85.4V37.74a7.73,7.73,0,0,0,4,1.08h.29a7.75,7.75,0,0,0,3.71-.93v5.37H109v-.69a17.44,17.44,0,0,0,5.91,1,16.3,16.3,0,0,0,6.05-1.1A14.69,14.69,0,0,0,125,40l-1.33,3.25h11.83a7.7,7.7,0,0,0,4.79-1.67,7.78,7.78,0,0,0,2.4-3.25l1.2-3H147l1.25,3.1a8,8,0,0,0,2.25,3.06,7.66,7.66,0,0,0,4.88,1.75h17.76V19.31h6.61l7.55,23.95H199.1l2.79-8.18,2.79,8.18h16.08a7.69,7.69,0,0,0,4.79-1.67,7.77,7.77,0,0,0,2.4-3.25l1.2-3h3.09l1.24,3.08a8,8,0,0,0,2.26,3.08,7.62,7.62,0,0,0,3.54,1.63v.12h15.86V39.17l.66.83a8,8,0,0,0,3,2.5,8.15,8.15,0,0,0,3.5.77h16.1Z"/><polygon class="cls-2" points="8.1 12.31 17.11 12.31 17.11 36.26 18.97 36.26 18.97 12.31 27.93 12.31 27.93 10.74 8.1 10.74 8.1 12.31"/><polygon class="cls-2" points="34.08 24.09 45.26 24.09 45.26 22.59 34.08 22.59 34.08 12.28 47.51 12.28 47.51 10.74 32.22 10.74 32.22 36.26 47.51 36.26 47.55 34.72 34.08 34.72 34.08 24.09"/><path class="cls-2" d="M60.28,10.74,49.84,36.26h1.41a.67.67,0,0,0,.43-.14.77.77,0,0,0,.25-.34l3-7.41H67.46l3,7.41a.9.9,0,0,0,.25.35.63.63,0,0,0,.41.14h1.42L62.1,10.74ZM55.48,27l5.19-12.87a7.36,7.36,0,0,0,.27-.71q.13-.39.23-.82a12.86,12.86,0,0,0,.52,1.51L66.9,27Z"/><path class="cls-2" d="M100.32,10.8a.64.64,0,0,0-.3.29L90,28.81q-.14.25-.27.53t-.23.57A7.37,7.37,0,0,0,89,28.83L78.74,11.09a.66.66,0,0,0-.29-.29,1.16,1.16,0,0,0-.4-.05H76.78V36.26H78.4V14.51q0-.49-.05-1L88.66,31.35a.79.79,0,0,0,.72.47h.29a.79.79,0,0,0,.72-.47l10-17.83a9.62,9.62,0,0,0-.05,1V36.26H102V10.74h-1.26A1.24,1.24,0,0,0,100.32,10.8Z"/><path class="cls-2" d="M121.06,24.41a8.49,8.49,0,0,0-2-1.2q-1.15-.48-2.35-.87t-2.35-.8a9.4,9.4,0,0,1-2-1,5,5,0,0,1-1.45-1.44,3.87,3.87,0,0,1-.55-2.15,4.94,4.94,0,0,1,.37-1.89,4.6,4.6,0,0,1,1.08-1.59,5.1,5.1,0,0,1,1.77-1.08,7.91,7.91,0,0,1,4.78-.05,7.74,7.74,0,0,1,2.58,1.49,1,1,0,0,0,.6.33.51.51,0,0,0,.47-.31l.43-.83a8.54,8.54,0,0,0-2.88-1.93,9.52,9.52,0,0,0-3.56-.63,8.45,8.45,0,0,0-3.15.55,7,7,0,0,0-2.32,1.46,6.14,6.14,0,0,0-1.42,2.1,6.46,6.46,0,0,0-.49,2.47,6,6,0,0,0,.55,2.73,5.48,5.48,0,0,0,1.45,1.82,8.1,8.1,0,0,0,2,1.2q1.14.47,2.35.85t2.35.78a9.39,9.39,0,0,1,2,1,4.74,4.74,0,0,1,1.45,1.46,4.12,4.12,0,0,1,.55,2.23,6.27,6.27,0,0,1-.43,2.33,5.31,5.31,0,0,1-1.25,1.88,5.91,5.91,0,0,1-2,1.25,7.46,7.46,0,0,1-2.7.46,8.12,8.12,0,0,1-2-.22,8.28,8.28,0,0,1-1.53-.53,7.13,7.13,0,0,1-1.17-.69q-.5-.37-.87-.69l-.61-.53a.72.72,0,0,0-.41-.22.63.63,0,0,0-.5.27l-.5.79a10.23,10.23,0,0,0,3.19,2.44,9.78,9.78,0,0,0,4.35.89,9.29,9.29,0,0,0,3.46-.6,7.49,7.49,0,0,0,2.56-1.65,7.05,7.05,0,0,0,1.6-2.46,8.27,8.27,0,0,0,.55-3,5.64,5.64,0,0,0-.55-2.62A5.51,5.51,0,0,0,121.06,24.41Z"/><path class="cls-2" d="M144.56,10.74,134.12,36.26h1.41a.67.67,0,0,0,.43-.14.77.77,0,0,0,.25-.34l3-7.41h12.53l3,7.41a.9.9,0,0,0,.25.35.63.63,0,0,0,.41.14h1.42L146.38,10.74ZM139.76,27,145,14.11a7.36,7.36,0,0,0,.27-.71q.13-.39.23-.82A12.86,12.86,0,0,0,146,14.1L151.17,27Z"/><polygon class="cls-2" points="155.28 12.31 164.3 12.31 164.3 36.26 166.16 36.26 166.16 12.31 175.12 12.31 175.12 10.74 155.28 10.74 155.28 12.31"/><path class="cls-2" d="M218,10.74a.71.71,0,0,0-.44.14.64.64,0,0,0-.24.34l-6.44,21q-.09.36-.17.77l-.17.86q-.09-.45-.19-.87a6.77,6.77,0,0,0-.23-.76l-7.21-21a.9.9,0,0,0-.25-.35.63.63,0,0,0-.41-.14h-.5a.67.67,0,0,0-.43.14.78.78,0,0,0-.25.34l-7.21,21a6.78,6.78,0,0,0-.22.77q-.09.41-.18.87-.16-.92-.36-1.64l-6.44-21a.63.63,0,0,0-.67-.49H184.4l8,25.51h1.64l7.56-22.14q.14-.45.25-.94.11.49.25.94l7.54,22.14h1.66l8-25.51Z"/><path class="cls-2" d="M229.79,10.74,219.35,36.26h1.41a.67.67,0,0,0,.43-.14.77.77,0,0,0,.25-.34l3-7.41H237l3,7.41a.9.9,0,0,0,.25.35.63.63,0,0,0,.41.14h1.42L231.61,10.74ZM225,27l5.19-12.87a7.36,7.36,0,0,0,.27-.71q.13-.39.23-.82a12.86,12.86,0,0,0,.52,1.51L236.41,27Z"/><path class="cls-2" d="M255.11,25.22a2.93,2.93,0,0,0-.78-.72,10.84,10.84,0,0,0,3-.78,7.58,7.58,0,0,0,2.29-1.49,6.26,6.26,0,0,0,1.45-2.12,6.86,6.86,0,0,0,.5-2.67,6,6,0,0,0-2.19-5q-2.19-1.7-6.59-1.7h-6.53V36.26h1.86V24.72h3.34a4.81,4.81,0,0,1,.64,0,1.78,1.78,0,0,1,.45.12,1.17,1.17,0,0,1,.34.23,2.46,2.46,0,0,1,.3.34l8.19,10.35a1,1,0,0,0,.39.37,1.19,1.19,0,0,0,.51.1h1.59Zm-2.54-1.88h-4.42V12.2h4.67A8.63,8.63,0,0,1,258,13.52a4.7,4.7,0,0,1,1.78,4,5.7,5.7,0,0,1-.49,2.4,5,5,0,0,1-1.42,1.82,6.54,6.54,0,0,1-2.27,1.16A10.5,10.5,0,0,1,252.56,23.35Z"/></svg>