<svg id="Capa_1" data-name="Capa 1" xmlns="http://www.w3.org/2000/svg" viewBox="0 0 61 37.1"><defs><style>.cls-1{fill:#ad0000;}</style></defs><title>logopequeno</title><path d="M60.39,14V9.43L57.71,6.75H51.45l-1,1-1-1H42.75l-.92.92-.92-.92h-8l-.64.64-.64-.64H20.34l-.77.77-.77-.77H3.29L.61,9.43v8.18L3.29,20.3h2v2.55L4,24.2l.1,6.12,50.17,0L59,15.4Z"/><polygon class="cls-1" points="6.23 14.08 8.03 14.08 8.03 24.2 6.68 24.2 6.68 28.84 15.46 28.84 15.46 24.2 14.08 24.2 14.08 14.08 15.87 14.08 15.87 17.61 18.8 17.61 18.8 9.43 3.29 9.43 3.29 17.61 6.23 17.61 6.23 14.08"/><polygon class="cls-1" points="38.31 28.85 43.19 28.85 45.3 21.43 47.4 28.85 52.22 28.85 56.64 14.04 57.71 14.04 57.71 9.43 51.45 9.43 51.45 14.04 52.56 14.04 50.71 22.33 48.36 14.04 49.51 14.04 49.51 9.43 42.75 9.43 42.75 14.04 43.9 14.04 41.58 22.33 39.75 14.04 40.91 14.04 40.91 9.43 32.86 9.43 32.86 14.04 33.94 14.04 38.31 28.85"/><path class="cls-1" d="M33.31,24.2l-3-10.12h1.26V9.43H20.34v4.65h1.26L18.66,24.2H17.47v4.65h4.85q0-2.44,0-4.88a1.66,1.66,0,0,1,.28-.75A2.12,2.12,0,0,0,22.9,22c0-.26,0-.53,0-.79h4.36c0,.24,0,.48,0,.72a2.09,2.09,0,0,0,.32,1.29,2.09,2.09,0,0,1,.29,1.16q0,2.22,0,4.45h6.63V24.2ZM23.19,19.09c.6-1.69,1.19-3.38,1.78-5.08l0-.08a.89.89,0,0,1,.08.14c.65,1.84,1.3,3.68,1.93,5.52a2,2,0,0,1,0,.65H23A2,2,0,0,1,23.19,19.09ZM22.89,21v-.23h0v-.27h4.33c0,.07,0,.13,0,.2v.07h0V21Z"/><path class="cls-1" d="M27.24,24.2a.09.09,0,0,0-.09.09v4.5a.09.09,0,0,0,.18,0v-4.5A.09.09,0,0,0,27.24,24.2Z"/><path class="cls-1" d="M26.28,19.08a.09.09,0,0,0,.08.06h0a.09.09,0,0,0,.05-.11l-1.17-3.34a.09.09,0,1,0-.17.06Z"/></svg>